<svg width="20" height="20" viewBox="0 0 20 20" fill="none" xmlns="http://www.w3.org/2000/svg">
<g clip-path="url(#clip0_15_121)">
<path d="M4.44375 14.7L5.33125 13.8187C3.2125 11.7 2.10625 10.625 1.49375 10L5.33125 6.18125C5.38952 6.12297 5.43575 6.05379 5.46729 5.97765C5.49883 5.90151 5.51506 5.81991 5.51506 5.7375C5.51506 5.65509 5.49883 5.57348 5.46729 5.49734C5.43575 5.4212 5.38952 5.35202 5.33125 5.29375C5.27298 5.23547 5.20379 5.18925 5.12766 5.15771C5.05152 5.12617 4.96991 5.10994 4.8875 5.10994C4.80509 5.10994 4.72348 5.12617 4.64734 5.15771C4.57121 5.18925 4.50202 5.23547 4.44375 5.29375L0.18125 9.55625C0.0670414 9.67602 0.00230218 9.83452 0 10C0.000343281 10.0827 0.0170928 10.1645 0.0492782 10.2407C0.0814636 10.3168 0.128445 10.3859 0.1875 10.4437L4.44375 14.7Z" fill="white"/>
<path d="M19.8189 9.55625C19.7564 9.5 15.5564 5.29375 15.5564 5.29375L14.6751 6.18125C16.7876 8.29375 17.8939 9.40625 18.5064 9.9875L14.6751 13.8187C14.5874 13.9058 14.5274 14.0169 14.5028 14.138C14.4781 14.2592 14.49 14.3849 14.5368 14.4993C14.5837 14.6137 14.6633 14.7116 14.7658 14.7807C14.8683 14.8498 14.989 14.887 15.1126 14.8875C15.1953 14.8872 15.2771 14.8704 15.3533 14.8382C15.4295 14.806 15.4985 14.7591 15.5564 14.7L19.8189 10.4437C19.8768 10.3853 19.9226 10.3161 19.9537 10.2399C19.9848 10.1638 20.0006 10.0823 20.0001 10C20.0006 9.91774 19.9848 9.8362 19.9537 9.76006C19.9226 9.68391 19.8768 9.61465 19.8189 9.55625Z" fill="white"/>
<path d="M8.29357 17.4437C8.43634 17.4479 8.57623 17.403 8.68994 17.3166C8.80366 17.2302 8.88435 17.1074 8.91857 16.9687L12.3123 3.33125C12.345 3.17302 12.3152 3.00828 12.229 2.87158C12.1429 2.73488 12.0072 2.63684 11.8504 2.59804C11.6935 2.55923 11.5278 2.58267 11.3878 2.66344C11.2479 2.74421 11.1447 2.87603 11.0998 3.03125L7.68732 16.6687C7.64701 16.827 7.67022 16.9947 7.75198 17.136C7.83374 17.2773 7.96756 17.3811 8.12482 17.425C8.17995 17.4389 8.23672 17.4452 8.29357 17.4437Z" fill="white"/>
</g>
<defs>
<clipPath id="clip0_15_121">
<rect width="20" height="20" fill="white"/>
</clipPath>
</defs>
</svg>
